<svg xmlns="http://www.w3.org/2000/svg" version="1.0" width="515.000000pt" height="450.000000pt" viewBox="0 0 515.000000 450.000000" preserveAspectRatio="xMidYMid meet">
<g transform="translate(0.000000,450.000000) scale(0.100000,-0.100000)" fill="#000000" stroke="none">
<path d="M2665 4385 c-451 -58 -846 -242 -1200 -560 -152 -136 -337 -374 -431 -552 -38 -75 -35 -71 47 56 136 211 326 398 564 558 199 134 471 240 740 289 141 26 509 26 645 1 589 -110 1054 -426 1364 -929 373 -606 366 -1439 -17 -2043 -114 -179 -284 -372 -432 -491 -558 -445 -1299 -556 -1964 -294 -374 147 -721 435 -925 768 -49 78 -59 81 -16 5 263 -468 712 -840 1212 -1004 116 -38 224 -64 378 -91 113 -19 469 -17 605 5 515 81 984 339 1313 722 276 322 444 689 508 1107 24 156 24 462 1 617 -147 949 -870 1678 -1812 1826 -142 22 -443 28 -580 10z"/>
<path d="M440 2774 c-140 -21 -224 -58 -296 -129 -136 -135 -92 -362 88 -453 111 -56 106 -55 523 -61 363 -6 392 -7 422 -25 43 -26 53 -69 24 -100 -40 -43 -76 -46 -509 -46 l-411 0 -48 -61 c-26 -33 -73 -93 -105 -132 l-56 -72 536 -3 c332 -1 557 2 591 8 125 23 253 111 301 206 34 69 39 171 11 245 -38 100 -115 170 -238 217 -68 26 -70 26 -438 32 -203 3 -376 9 -382 13 -17 11 -16 62 0 76 10 7 141 12 422 13 l409 3 84 110 c46 61 92 122 103 137 l20 27 -513 -1 c-282 0 -524 -2 -538 -4z"/>
<path d="M1878 2772 c-9 -4 -62 -65 -118 -137 l-101 -130 523 -5 c485 -5 526 -6 559 -24 70 -36 91 -119 44 -174 -51 -61 -66 -62 -627 -62 l-508 0 0 -275 0 -275 165 0 165 0 0 135 0 135 240 0 240 0 73 -60 c39 -33 113 -93 162 -135 l90 -75 233 0 c127 0 232 3 231 8 0 4 -50 48 -111 97 -61 50 -144 119 -185 154 l-73 65 62 33 c80 42 138 100 174 171 26 51 29 67 29 152 0 84 -3 102 -29 153 -69 142 -220 224 -456 247 -108 11 -756 12 -782 2z"/>
<path d="M3360 2235 l0 -545 483 0 482 1 102 132 102 132 -419 3 -420 2 -2 408 -3 407 -162 3 -163 2 0 -545z"/>
</g>
</svg>